<svg width="24" height="24" viewBox="0 0 24 24" fill="none" xmlns="http://www.w3.org/2000/svg">
<path d="M21 9C21 8.73478 20.8946 8.48051 20.707 8.29297C20.5195 8.10543 20.2652 8 20 8H18.0029C17.4618 7.99999 16.9306 7.85343 16.4658 7.57617C16.0011 7.2989 15.6198 6.90099 15.3628 6.4248L14.877 5.52539V5.5249C14.7913 5.3662 14.6642 5.23352 14.5093 5.14111C14.3544 5.04874 14.1774 5.00001 13.9971 5H10.0039C9.82371 5 9.64699 5.04889 9.49219 5.14111C9.35675 5.22181 9.24258 5.33309 9.15869 5.46582L9.12451 5.52393L8.63574 6.42773L8.63525 6.42822C8.37794 6.90353 7.99703 7.30049 7.53271 7.57715C7.12636 7.81925 6.66927 7.96143 6.19922 7.99316L5.99707 8H4C3.73478 8 3.4805 8.10543 3.29297 8.29297C3.10543 8.4805 3 8.73478 3 9V18C3 18.2652 3.10543 18.5195 3.29297 18.707C3.48051 18.8946 3.73478 19 4 19H20C20.2652 19 20.5195 18.8946 20.707 18.707C20.8946 18.5195 21 18.2652 21 18V9ZM14 13C14 11.8954 13.1046 11 12 11C10.8954 11 10 11.8954 10 13C10 14.1046 10.8954 15 12 15C13.1046 15 14 14.1046 14 13ZM16 13C16 15.2091 14.2091 17 12 17C9.79086 17 8 15.2091 8 13C8 10.7909 9.79086 9 12 9C14.2091 9 16 10.7909 16 13ZM23 18C23 18.7957 22.6837 19.5585 22.1211 20.1211C21.5585 20.6837 20.7957 21 20 21H4C3.20435 21 2.44151 20.6837 1.87891 20.1211C1.3163 19.5585 1 18.7956 1 18V9C1 8.20435 1.3163 7.44152 1.87891 6.87891C2.44152 6.3163 3.20435 6 4 6H5.99707C6.17726 6.00001 6.35398 5.95111 6.50879 5.85889C6.66357 5.76667 6.79069 5.63452 6.87646 5.47607L7.36523 4.57227L7.36572 4.57178C7.62304 4.09647 8.00395 3.69952 8.46826 3.42285C8.93267 3.14616 9.46333 3 10.0039 3H13.9971C14.5382 3.00001 15.0694 3.14657 15.5342 3.42383C15.9988 3.70103 16.3797 4.09868 16.6367 4.57471L17.123 5.47461V5.4751C17.2087 5.6338 17.3358 5.76648 17.4907 5.85889C17.6456 5.95126 17.8226 5.99999 18.0029 6H20C20.7957 6 21.5585 6.3163 22.1211 6.87891C22.6837 7.44151 23 8.20435 23 9V18Z" fill="#00358D"/>
</svg>
