<svg width="21" height="21" viewBox="0 0 21 21" fill="none" xmlns="http://www.w3.org/2000/svg">
<g clip-path="url(#clip0_1558_11385)">
<path d="M18.375 10.5C18.375 6.15076 14.8492 2.625 10.5 2.625C6.15076 2.625 2.625 6.15076 2.625 10.5C2.625 14.8492 6.15076 18.375 10.5 18.375C14.8492 18.375 18.375 14.8492 18.375 10.5ZM10.5085 14C10.9918 14 11.3835 14.3918 11.3835 14.875C11.3835 15.3582 10.9918 15.75 10.5085 15.75H10.5C10.0168 15.75 9.625 15.3582 9.625 14.875C9.625 14.3918 10.0168 14 10.5 14H10.5085ZM8.65643 5.72852C9.36903 5.30972 10.207 5.15684 11.0217 5.29657C11.8363 5.4363 12.5752 5.85972 13.1075 6.492C13.6395 7.12401 13.9309 7.9239 13.9299 8.75C13.9299 10.0895 12.9369 10.974 12.2278 11.4468C11.8467 11.7008 11.4717 11.8876 11.1956 12.0103C11.0562 12.0722 10.9387 12.1195 10.8542 12.1517C10.8119 12.1678 10.7775 12.1805 10.7525 12.1893C10.7401 12.1938 10.7298 12.1974 10.7222 12.2C10.7184 12.2013 10.7149 12.2021 10.7123 12.203C10.7111 12.2034 10.7099 12.204 10.7089 12.2043L10.7076 12.2047H10.7072C10.706 12.2019 10.6899 12.1549 10.4299 11.375L10.7068 12.2051C10.2484 12.3579 9.75265 12.1102 9.59979 11.6519C9.4471 11.1938 9.69447 10.6985 10.1522 10.5453L10.1526 10.5449C10.1549 10.5441 10.1596 10.5426 10.1663 10.5402C10.1798 10.5354 10.2019 10.5274 10.2313 10.5162C10.2902 10.4938 10.378 10.459 10.4846 10.4116C10.7006 10.3156 10.982 10.1741 11.2571 9.99072C11.8605 9.58846 12.1799 9.16049 12.1799 8.75V8.74872C12.1805 8.33546 12.035 7.93524 11.7689 7.61908C11.5028 7.30295 11.1333 7.09126 10.726 7.02136C10.3187 6.95149 9.8997 7.02815 9.5434 7.23755C9.1871 7.44695 8.91619 7.77567 8.77905 8.16553C8.61864 8.62123 8.11929 8.8607 7.66351 8.70044C7.20765 8.54008 6.96781 8.04034 7.12817 7.58447C7.40246 6.80483 7.9439 6.1473 8.65643 5.72852ZM20.125 10.5C20.125 15.8157 15.8157 20.125 10.5 20.125C5.18426 20.125 0.875 15.8157 0.875 10.5C0.875 5.18426 5.18426 0.875 10.5 0.875C15.8157 0.875 20.125 5.18426 20.125 10.5Z" fill="black"/>
</g>
<defs>
<clipPath id="clip0_1558_11385">
<rect width="21" height="21" fill="white"/>
</clipPath>
</defs>
</svg>
