<svg width="22" height="18" viewBox="0 0 22 18" fill="none" xmlns="http://www.w3.org/2000/svg">
<path d="M19.2513 7.5C19.2513 7.30109 19.1547 7.11038 18.9827 6.96973C18.8108 6.82907 18.5778 6.75 18.3346 6.75H6.41797V12H19.2513V7.5ZM2.7513 12H4.58464V6.75H2.7513V12ZM21.0846 15C21.0846 15.4142 20.6742 15.75 20.168 15.75C19.6617 15.75 19.2513 15.4142 19.2513 15V13.5H2.7513V15C2.7513 15.4142 2.3409 15.75 1.83464 15.75C1.32837 15.75 0.917969 15.4142 0.917969 15V3C0.917969 2.58579 1.32837 2.25 1.83464 2.25C2.3409 2.25 2.7513 2.58579 2.7513 3V5.25H18.3346C19.064 5.25 19.7632 5.48722 20.279 5.90918C20.7947 6.33114 21.0846 6.90326 21.0846 7.5V15Z" fill="black"/>
</svg>
