<svg width="23" height="24" viewBox="0 0 23 24" fill="none" xmlns="http://www.w3.org/2000/svg">
<path d="M5.7486 7C5.7486 6.20435 6.05171 5.44152 6.59088 4.87891C7.13005 4.3163 7.8611 4 8.6236 4C9.15287 4 9.58193 4.44772 9.58193 5C9.58193 5.55228 9.15287 6 8.6236 6C8.36943 6 8.12575 6.10543 7.94603 6.29297C7.7663 6.4805 7.66526 6.73478 7.66526 7V8H15.3319V7C15.3319 6.20435 15.635 5.44151 16.1742 4.87891C16.7134 4.3163 17.4444 4 18.2069 4C18.7362 4 19.1653 4.44772 19.1653 5C19.1653 5.55228 18.7362 6 18.2069 6C17.9528 6 17.7091 6.10543 17.5294 6.29297C17.3496 6.48051 17.2486 6.73478 17.2486 7V16.2383C17.6632 16.0875 18.1336 16 18.6861 16C19.442 16 20.0416 16.1538 20.5532 16.4121C21.0452 16.6606 21.4169 16.9898 21.6954 17.2319C22.102 17.5855 22.1568 18.2159 21.818 18.6401C21.4792 19.0644 20.875 19.1216 20.4685 18.7681C20.1721 18.5104 19.9688 18.3394 19.7184 18.2129C19.4872 18.0962 19.176 18 18.6861 18C18.2262 18 17.9191 18.0932 17.6782 18.2139C17.4168 18.3448 17.1978 18.5228 16.8888 18.7808C16.5989 19.0227 16.2189 19.3448 15.7315 19.5889C15.2238 19.8432 14.6324 20 13.8944 20C13.1385 20 12.5389 19.8462 12.0274 19.5879C11.5353 19.3394 11.1636 19.0102 10.8851 18.7681C10.5888 18.5104 10.3855 18.3394 10.135 18.2129C9.90384 18.0962 9.59267 18 9.10276 18C8.64288 18 8.33577 18.0932 8.09483 18.2139C7.83348 18.3448 7.61449 18.5228 7.30542 18.7808C7.01555 19.0227 6.63552 19.3448 6.14821 19.5889C5.64047 19.8432 5.04911 20 4.3111 20C3.55517 20 2.95555 19.8462 2.44403 19.5879C1.95196 19.3394 1.5803 19.0102 1.3018 18.7681C0.895242 18.4145 0.84038 17.7841 1.1792 17.3599C1.51804 16.9356 2.12214 16.8784 2.52873 17.2319C2.8251 17.4896 3.02834 17.6606 3.27883 17.7871C3.51002 17.9038 3.82119 18 4.3111 18C4.77098 18 5.07809 17.9068 5.31903 17.7861C5.46811 17.7115 5.60252 17.6202 5.7486 17.5088V7ZM7.66526 16.2383C8.07984 16.0875 8.55028 16 9.10276 16C9.85869 16 10.4583 16.1538 10.9698 16.4121C11.4619 16.6606 11.8336 16.9898 12.1121 17.2319C12.4084 17.4896 12.6117 17.6606 12.8622 17.7871C13.0934 17.9038 13.4045 18 13.8944 18C14.3543 18 14.6614 17.9068 14.9024 17.7861C15.0514 17.7115 15.1859 17.6202 15.3319 17.5088V14H7.66526V16.2383ZM7.66526 12H15.3319V10H7.66526V12Z" fill="black"/>
</svg>
