<svg width="18" height="19" viewBox="0 0 18 19" fill="none" xmlns="http://www.w3.org/2000/svg">
<path d="M14.25 7.91663C14.25 6.44688 13.6968 5.03737 12.7123 3.99811C11.7585 2.99132 10.4755 2.41174 9.13037 2.37651L9 2.37496C7.60761 2.37496 6.27229 2.95884 5.28772 3.99811C4.30315 5.03737 3.75 6.44688 3.75 7.91663C3.75 9.62609 4.66259 11.4685 5.84839 13.1131C6.99439 14.7024 8.30967 15.9891 9 16.6215C9.69033 15.9891 11.0056 14.7024 12.1516 13.1131C13.3374 11.4685 14.25 9.62609 14.25 7.91663ZM10.5 7.91663C10.5 7.04217 9.82843 6.33329 9 6.33329C8.17157 6.33329 7.5 7.04217 7.5 7.91663C7.5 8.79108 8.17157 9.49996 9 9.49996C9.82843 9.49996 10.5 8.79108 10.5 7.91663ZM12 7.91663C12 9.66553 10.6569 11.0833 9 11.0833C7.34315 11.0833 6 9.66553 6 7.91663C6 6.16772 7.34315 4.74996 9 4.74996C10.6569 4.74996 12 6.16772 12 7.91663ZM15.75 7.91663C15.75 10.16 14.5855 12.3523 13.3455 14.0721C12.088 15.8161 10.6572 17.2036 9.9408 17.8565C9.92806 17.8681 9.91506 17.8795 9.90161 17.8902C9.67422 18.0706 9.4035 18.1787 9.12158 18.2029L9 18.2079C8.6748 18.2079 8.3583 18.0965 8.09839 17.8902C8.08494 17.8795 8.07194 17.8681 8.0592 17.8565C7.34281 17.2036 5.91198 15.8161 4.65454 14.0721C3.41447 12.3523 2.25 10.16 2.25 7.91663C2.25 6.02696 2.9613 4.21484 4.22717 2.87864C5.49304 1.54245 7.20979 0.791626 9 0.791626C10.7902 0.791626 12.507 1.54245 13.7728 2.87864C15.0387 4.21484 15.75 6.02696 15.75 7.91663Z" fill="black"/>
</svg>
