<svg width="24" height="24" viewBox="0 0 24 24" fill="none" xmlns="http://www.w3.org/2000/svg">
<path d="M17 15.5C17 14.837 16.7364 14.2013 16.2676 13.7324C15.8281 13.2929 15.2419 13.0336 14.624 13.0029L14.5 13H13V18H14.5L14.624 17.9971C15.2419 17.9664 15.8281 17.7071 16.2676 17.2676C16.7364 16.7987 17 16.163 17 15.5ZM19 15.5C19 16.6935 18.526 17.8382 17.6821 18.6821C16.8382 19.526 15.6935 20 14.5 20H13V22C13 22.5523 12.5523 23 12 23C11.4477 23 11 22.5523 11 22V20H6C5.44772 20 5 19.5523 5 19C5 18.4477 5.44772 18 6 18H11V13H9.5C8.30653 13 7.16178 12.526 6.31787 11.6821C5.5267 10.891 5.06055 9.83538 5.00537 8.72314L5 8.5C5 7.30653 5.47396 6.16178 6.31787 5.31787C7.16178 4.47396 8.30653 4 9.5 4H11V2C11 1.44772 11.4477 1 12 1C12.5523 1 13 1.44772 13 2V4H17C17.5523 4 18 4.44772 18 5C18 5.55228 17.5523 6 17 6H13V11H14.5C15.6935 11 16.8382 11.474 17.6821 12.3179C18.526 13.1618 19 14.3065 19 15.5ZM7.00293 8.62402C7.03359 9.24191 7.29289 9.82805 7.73242 10.2676C8.20126 10.7364 8.83696 11 9.5 11H11V6H9.5C8.83696 6 8.20126 6.26358 7.73242 6.73242C7.26358 7.20126 7 7.83696 7 8.5L7.00293 8.62402Z" fill="black"/>
</svg>
