<svg width="19" height="18" viewBox="0 0 19 18" fill="none" xmlns="http://www.w3.org/2000/svg">
<path d="M11.8763 15.75V14.25C11.8763 13.6533 11.6259 13.0811 11.1805 12.6592C10.763 12.2636 10.2062 12.0305 9.6192 12.0029L9.5013 12H4.7513C4.12141 12 3.5175 12.2372 3.0721 12.6592C2.6267 13.0811 2.3763 13.6533 2.3763 14.25V15.75C2.3763 16.1642 2.02186 16.5 1.58464 16.5C1.14741 16.5 0.792969 16.1642 0.792969 15.75V14.25C0.792969 13.2554 1.20992 12.3015 1.95225 11.5983C2.69458 10.895 3.70149 10.5 4.7513 10.5H9.5013C10.5511 10.5 11.558 10.895 12.3004 11.5983C13.0427 12.3015 13.4596 13.2554 13.4596 14.25V15.75C13.4596 16.1642 13.1052 16.5 12.668 16.5C12.2307 16.5 11.8763 16.1642 11.8763 15.75ZM16.6263 15.75V14.2507L16.6244 14.1573C16.6036 13.6919 16.4307 13.2432 16.1284 12.8738C15.806 12.4798 15.3546 12.1982 14.8451 12.0736C14.4217 11.97 14.1671 11.561 14.2764 11.1599C14.3858 10.7589 14.8176 10.5177 15.2409 10.6212C16.09 10.8289 16.8424 11.298 17.3797 11.9546C17.917 12.6112 18.2089 13.4184 18.2096 14.2493V15.75C18.2096 16.1642 17.8552 16.5 17.418 16.5C16.9807 16.5 16.6263 16.1642 16.6263 15.75ZM9.5013 5.25C9.5013 4.00736 8.43798 3 7.1263 3C5.81463 3 4.7513 4.00736 4.7513 5.25C4.7513 6.49264 5.81463 7.5 7.1263 7.5C8.43798 7.5 9.5013 6.49264 9.5013 5.25ZM14.2482 5.25C14.2482 4.75156 14.0735 4.26725 13.7515 3.87305C13.4295 3.47888 12.9785 3.19722 12.4693 3.07214C12.046 2.9682 11.7921 2.55867 11.9018 2.15771C12.0116 1.75682 12.4435 1.51618 12.8667 1.62012C13.7155 1.82859 14.4673 2.29798 15.0039 2.95496C15.5406 3.61196 15.8315 4.41927 15.8315 5.25C15.8315 6.08073 15.5406 6.88804 15.0039 7.54504C14.4673 8.20202 13.7155 8.67141 12.8667 8.87988C12.4435 8.98382 12.0116 8.74318 11.9018 8.34229C11.7921 7.94133 12.046 7.5318 12.4693 7.42786C12.9785 7.30278 13.4295 7.02112 13.7515 6.62695C14.0735 6.23275 14.2482 5.74844 14.2482 5.25ZM11.0846 5.25C11.0846 7.32107 9.31243 9 7.1263 9C4.94018 9 3.16797 7.32107 3.16797 5.25C3.16797 3.17893 4.94018 1.5 7.1263 1.5C9.31243 1.5 11.0846 3.17893 11.0846 5.25Z" fill="black"/>
</svg>
